<svg width="257" height="55" viewBox="0 0 257 55" fill="none" xmlns="http://www.w3.org/2000/svg">
<path d="M57.049 41.9549C57.104 42.7197 57.3603 43.4564 57.7918 44.0908C58.2234 44.7251 58.815 45.2346 59.5069 45.5679L59.7707 45.6951C59.798 45.7075 59.8201 45.7289 59.8334 45.7557C59.8466 45.7825 59.8503 45.8131 59.8437 45.8422C59.8371 45.8713 59.8206 45.8973 59.7971 45.9158C59.7735 45.9343 59.7443 45.9441 59.7144 45.9437H47.6206C47.5223 45.9437 47.4281 45.9047 47.3586 45.8353C47.289 45.7659 47.25 45.6719 47.25 45.5738V8.32614C47.2508 8.22856 47.2902 8.13525 47.3596 8.06652C47.429 7.9978 47.5228 7.95923 47.6206 7.95923H57.8287C57.9265 7.95923 58.0203 7.9978 58.0898 8.06652C58.1592 8.13525 58.1986 8.22856 58.1993 8.32614V18.147C58.1989 18.2065 58.2166 18.2648 58.2498 18.3142C58.2831 18.3635 58.3306 18.4017 58.386 18.4238C58.4414 18.4458 58.5022 18.4507 58.5604 18.4377C58.6186 18.4248 58.6715 18.3946 58.7123 18.3512C60.7373 16.1378 63.3849 14.9631 67.0614 14.9631C74.9955 14.9631 79.5703 22.0144 79.5703 30.5688C79.5703 40.6293 74.7642 46.352 66.9458 46.352C58.5225 46.352 57.9266 42.0289 57.3217 41.7922C57.1705 41.7389 57.0282 41.8099 57.049 41.9549ZM69.6527 30.4534C69.6527 25.8285 67.856 22.8814 64.5561 22.8814C61.1968 22.8814 58.9939 26.1777 58.9939 30.4534C58.9939 34.7883 61.1968 38.0284 64.5561 38.0284C67.9153 38.0284 69.6527 35.0783 69.6527 30.4534Z" fill="#4F4F4F"/>
<path d="M124.064 41.9549C124.275 43.4936 125.114 44.8903 126.522 45.5679L126.783 45.6951C126.81 45.7075 126.832 45.7289 126.846 45.7557C126.859 45.7825 126.863 45.8131 126.856 45.8422C126.849 45.8713 126.833 45.8973 126.809 45.9158C126.786 45.9343 126.757 45.9441 126.727 45.9437H114.627C114.578 45.9437 114.53 45.9341 114.486 45.9155C114.441 45.8968 114.4 45.8695 114.366 45.8352C114.332 45.8008 114.305 45.76 114.286 45.7151C114.268 45.6702 114.259 45.6222 114.259 45.5738V8.32614C114.259 8.22883 114.298 8.13551 114.367 8.0667C114.436 7.9979 114.529 7.95923 114.627 7.95923H124.838C124.935 7.96 125.028 7.99891 125.097 8.06755C125.166 8.1362 125.205 8.22907 125.206 8.32614V18.147C125.205 18.2065 125.223 18.2648 125.256 18.3142C125.289 18.3635 125.337 18.4017 125.392 18.4238C125.448 18.4458 125.508 18.4507 125.567 18.4377C125.625 18.4248 125.678 18.3946 125.719 18.3512C127.744 16.1378 130.391 14.9631 134.068 14.9631C142.005 14.9631 146.58 22.0144 146.58 30.5688C146.58 40.6293 141.771 46.352 133.952 46.352C125.529 46.352 124.933 42.0289 124.328 41.7922C124.186 41.7389 124.04 41.8099 124.064 41.9549ZM136.665 30.4534C136.665 25.8285 134.871 22.8814 131.568 22.8814C128.209 22.8814 126.009 26.1777 126.009 30.4534C126.009 34.7883 128.209 38.0284 131.568 38.0284C134.928 38.0284 136.665 35.0783 136.665 30.4534Z" fill="#4F4F4F"/>
<path d="M246.185 41.792C245.592 42.0287 244.999 46.3518 236.561 46.3518C228.743 46.3518 223.937 40.6291 223.937 30.5686C223.937 22.0142 228.511 14.9629 236.445 14.9629C240.054 14.9629 242.672 16.0933 244.676 18.2178C244.726 18.2715 244.791 18.3088 244.863 18.3249C244.935 18.3409 245.01 18.335 245.078 18.3078C245.146 18.2806 245.205 18.2334 245.246 18.1725C245.287 18.1116 245.308 18.0397 245.307 17.9663V8.32004C245.308 8.22245 245.348 8.12913 245.417 8.0604C245.486 7.99168 245.58 7.95312 245.678 7.95313H255.886C255.984 7.95312 256.078 7.99168 256.147 8.0604C256.217 8.12913 256.256 8.22245 256.257 8.32004V45.5677C256.257 45.6658 256.218 45.7598 256.148 45.8292C256.079 45.8986 255.984 45.9375 255.886 45.9375H243.781C243.751 45.938 243.721 45.9282 243.698 45.9097C243.674 45.8912 243.658 45.8652 243.651 45.8361C243.645 45.8069 243.648 45.7764 243.662 45.7496C243.675 45.7228 243.697 45.7014 243.724 45.689L243.988 45.5617C244.68 45.2285 245.272 44.719 245.703 44.0846C246.135 43.4503 246.391 42.7136 246.446 41.9488C246.467 41.8098 246.324 41.7387 246.185 41.792ZM238.939 38.0282C242.298 38.0282 244.501 34.7881 244.501 30.4532C244.501 26.1775 242.298 22.8812 238.939 22.8812C235.639 22.8812 233.842 25.8401 233.842 30.4532C233.842 35.0662 235.594 38.0282 238.939 38.0282Z" fill="#4F4F4F"/>
<path d="M80.7441 30.6841C80.7441 21.7243 87.1157 15.0193 96.9621 15.0193C106.809 15.0193 113.064 21.7243 113.064 30.6841C113.064 39.6439 106.811 46.2927 96.9621 46.2927C87.1127 46.2927 80.7441 39.6469 80.7441 30.6841ZM101.946 30.6841C101.946 25.716 100.209 22.3605 96.8494 22.3605C93.4902 22.3605 91.8655 25.716 91.8655 30.6841C91.8655 35.6523 93.4873 39.0137 96.8376 39.0137C100.188 39.0137 101.946 35.6552 101.946 30.6841Z" fill="#4F4F4F"/>
<path d="M147.407 35.8299H157.191C157.281 35.8317 157.367 35.8664 157.434 35.9275C157.5 35.9886 157.541 36.0718 157.55 36.1613C157.846 38.3894 159.329 39.7121 161.979 39.7121C164.123 39.7121 165.742 38.9605 165.742 37.1674C165.742 34.741 162.326 34.451 158.504 33.874C153.52 33.1224 147.786 31.8027 147.786 24.4053C147.786 18.3364 153.986 14.9839 161.226 14.9839C169.99 14.9839 174.669 18.1796 175.265 23.7099C175.269 23.7617 175.263 23.8138 175.246 23.863C175.23 23.9123 175.203 23.9575 175.168 23.9959C175.133 24.0342 175.09 24.0649 175.043 24.086C174.995 24.1071 174.943 24.118 174.891 24.1183H165.288C165.203 24.1174 165.121 24.0876 165.055 24.0338C164.989 23.98 164.944 23.9054 164.926 23.8224C164.532 21.8872 162.978 21.47 161.271 21.47C159.649 21.47 158.143 22.1062 158.143 23.6064C158.143 25.2841 160.864 25.6303 164.224 26.0949C169.611 26.8465 176.448 28.0596 176.448 36.2678C176.448 43.3191 170.017 46.3846 161.92 46.3846C153.343 46.3846 147.327 42.7687 147.045 36.2501C147.039 36.1984 147.044 36.1459 147.059 36.0961C147.074 36.0463 147.099 36.0001 147.133 35.9606C147.167 35.9211 147.209 35.8891 147.256 35.8666C147.303 35.8441 147.355 35.8316 147.407 35.8299Z" fill="#4F4F4F"/>
<path d="M178.595 7.95923H189.093C189.191 7.95923 189.285 7.9978 189.354 8.06652C189.424 8.13525 189.463 8.22856 189.464 8.32614V45.5738C189.464 45.6719 189.425 45.7659 189.355 45.8353C189.286 45.9047 189.192 45.9437 189.093 45.9437H178.595C178.546 45.9437 178.498 45.9341 178.453 45.9154C178.409 45.8968 178.368 45.8695 178.334 45.8352C178.3 45.8008 178.272 45.7599 178.254 45.7151C178.236 45.6702 178.227 45.6222 178.227 45.5738V8.32614C178.227 8.22883 178.266 8.13551 178.335 8.0667C178.404 7.9979 178.497 7.95923 178.595 7.95923Z" fill="#4F4F4F"/>
<path d="M190.946 30.5686C190.946 21.668 197.374 14.9038 206.699 14.9038C211.333 14.9038 214.867 16.407 217.589 18.8925C221.105 22.1178 222.786 27.228 222.748 32.9181C222.746 33.0159 222.706 33.1092 222.636 33.1779C222.566 33.2465 222.472 33.285 222.374 33.285H202.115C202.06 33.285 202.005 33.2974 201.955 33.3214C201.905 33.3453 201.861 33.3802 201.826 33.4233C201.791 33.4665 201.767 33.5169 201.754 33.5708C201.742 33.6247 201.741 33.6807 201.753 33.7347C202.465 36.8772 204.297 38.765 207.452 38.765C209.284 38.765 210.636 38.0756 211.46 36.747C211.491 36.6952 211.534 36.6519 211.586 36.6209C211.638 36.5899 211.697 36.5722 211.757 36.5694H221.669C221.726 36.5692 221.782 36.5822 221.833 36.6074C221.885 36.6325 221.929 36.6692 221.964 36.7144C221.999 36.7597 222.023 36.8124 222.034 36.8683C222.044 36.9243 222.042 36.982 222.027 37.037C221.268 39.5314 219.261 41.937 216.533 43.6799C213.806 45.4227 210.859 46.1654 207.093 46.1654C197.433 46.1773 190.946 39.5876 190.946 30.5686ZM202.112 27.5061H211.419C211.473 27.506 211.526 27.4942 211.575 27.4715C211.624 27.4487 211.667 27.4156 211.702 27.3745C211.736 27.3334 211.762 27.2852 211.776 27.2333C211.79 27.1814 211.793 27.1271 211.784 27.0741C211.223 24.0411 209.412 22.245 206.93 22.245C204.06 22.245 202.4 24.0855 201.747 27.0622C201.737 27.116 201.738 27.1715 201.752 27.2246C201.765 27.2778 201.79 27.3273 201.825 27.3697C201.86 27.4121 201.904 27.4462 201.953 27.4698C202.003 27.4934 202.057 27.5058 202.112 27.5061Z" fill="#4F4F4F"/>
<path d="M34.9976 0.580819L27.311 5.42103C27.0463 5.58814 26.8284 5.81865 26.6774 6.09125C26.5264 6.36386 26.4471 6.66979 26.447 6.98074V9.503C26.4519 10.5583 26.2468 11.6042 25.8435 12.581C25.4402 13.5577 24.8466 14.4463 24.0966 15.1958C23.3467 15.9453 22.455 16.541 21.4726 16.9491C20.4901 17.3571 19.4361 17.5695 18.3708 17.5739C13.5078 17.6276 8.86232 19.579 5.44263 23.0046C2.02293 26.4302 0.10498 31.0535 0.10498 35.8713C0.10498 40.689 2.02293 45.3124 5.44263 48.7379C8.86232 52.1635 13.5078 54.115 18.3708 54.1687C20.7944 54.1669 23.1938 53.6922 25.4321 52.7717C27.6704 51.8512 29.7038 50.503 31.4161 48.804C33.1284 47.105 34.4861 45.0885 35.4117 42.8697C36.3372 40.6509 36.8125 38.2732 36.8104 35.8724V1.57063C36.8109 1.361 36.7545 1.15509 36.6471 0.974461C36.5397 0.793837 36.3852 0.645101 36.1999 0.543905C36.0146 0.442709 35.8052 0.39276 35.5937 0.399241C35.3822 0.405721 35.1763 0.468471 34.9976 0.580819ZM18.707 44.0103C17.6339 44.0258 16.2897 43.7797 15.2947 43.3814C14.2997 42.9831 13.508 42.3498 12.747 41.6002C11.986 40.8506 11.384 39.9577 10.9763 38.9743C10.5687 37.9908 10.3636 36.9366 10.3732 35.8735C10.3732 31.4532 13.7284 27.8254 18.5411 27.8254C20.6718 27.8608 22.8374 28.7242 24.3316 30.2295C25.8257 31.7347 26.663 33.7613 26.663 35.8724C26.663 37.9835 25.8257 40.0949 24.3316 41.6002C22.8374 43.1054 20.8378 43.9748 18.707 44.0103Z" fill="url(#paint0_linear_116_14529)"/>
<path d="M18.5376 17.5762C16.3864 17.5665 14.3271 16.7109 12.8125 15.1973C11.298 13.6838 10.4523 11.6364 10.4615 9.50533V6.98296C10.4618 6.67193 10.3827 6.36592 10.2317 6.09325C10.0806 5.82057 9.86247 5.59016 9.59746 5.42336L1.91775 0.580819C1.73909 0.468471 1.53322 0.405721 1.3217 0.399241C1.11019 0.39276 0.900799 0.442709 0.715471 0.543905C0.530142 0.645101 0.375715 0.793837 0.268308 0.974461C0.1609 1.15509 0.104491 1.361 0.104986 1.57063V35.8724C0.101337 40.7208 2.0419 45.3722 5.49992 48.8034C8.95795 52.2345 13.6502 54.1645 18.5445 54.1687C23.4076 54.115 28.0531 52.1635 31.4728 48.7379C34.8925 45.3124 36.8104 40.689 36.8104 35.8713C36.8104 31.0535 34.8925 26.4302 31.4728 23.0046C28.0531 19.579 23.4076 17.6276 18.5445 17.5739L18.5376 17.5762ZM18.5376 43.9637C16.9301 43.9664 15.3579 43.4966 14.02 42.6138C12.6821 41.731 11.6387 40.4748 11.0218 39.0043C10.4048 37.5338 10.2421 35.9151 10.5542 34.353C10.8663 32.7908 11.6392 31.3555 12.7751 30.2287C13.911 29.1019 15.3588 28.3341 16.9353 28.0227C18.5117 27.7113 20.146 27.8703 21.6313 28.4794C23.1166 29.0885 24.3861 30.1203 25.2792 31.4444C26.1722 32.7685 26.6486 34.3254 26.6482 35.9178C26.6488 38.0497 25.7948 40.0946 24.2739 41.603C22.753 43.1113 20.6897 43.9597 18.5376 43.9615V43.9637Z" fill="url(#paint1_linear_116_14529)"/>
<defs>
<linearGradient id="paint0_linear_116_14529" x1="10.1297" y1="51.8394" x2="31.0953" y2="8.87312" gradientUnits="userSpaceOnUse">
<stop/>
<stop offset="0.12" stop-color="#040101"/>
<stop offset="0.24" stop-color="#110505"/>
<stop offset="0.37" stop-color="#270A0C"/>
<stop offset="0.5" stop-color="#451215"/>
<stop offset="0.654682" stop-color="#6B1D24"/>
<stop offset="0.819432" stop-color="#9B292F"/>
<stop offset="0.908319" stop-color="#D23840"/>
<stop offset="1" stop-color="#FF444E"/>
</linearGradient>
<linearGradient id="paint1_linear_116_14529" x1="2.93073" y1="5.62535" x2="26.1268" y2="51.4329" gradientUnits="userSpaceOnUse">
<stop offset="0.56" stop-color="#FF444E"/>
<stop offset="0.99" stop-color="#EB5379"/>
</linearGradient>
</defs>
</svg>
